<svg width="1440" height="320" viewBox="0 0 1440 320" fill="none" xmlns="http://www.w3.org/2000/svg">
<g clip-path="url(#clip0_172_77)">
<path d="M-13.7295 96L21.2851 106.7C56.2997 117 126.125 139 196.562 133.3C266.285 128 336.416 96 405.833 96C476.271 96 546.708 128 616.125 128C686.256 128 755.979 96 826.416 80C896.241 64 966.271 64 1036.71 80C1106.23 96 1176.56 128 1245.98 138.7C1316.31 149 1385.83 139 1421.56 133.3L1530.28 106.7L1456.27 320H1421.26C1386.24 320 1316.42 320 1245.98 320C1176.26 320 1106.12 320 1036.71 320C966.271 320 895.833 320 826.416 320C756.285 320 686.562 320 616.125 320C546.3 320 476.271 320 405.833 320C336.314 320 265.979 320 196.562 320C126.227 320 56.708 320 20.9788 320H-13.7295V96Z" fill="white"/>
</g>
<defs>
<clipPath id="clip0_172_77">
<rect width="1470" height="320" fill="white" transform="translate(-27)"/>
</clipPath>
</defs>
</svg>
